<svg xmlns="http://www.w3.org/2000/svg" width="390" height="844" viewBox="0 0 390 844" font-family="Segoe UI, Arial, sans-serif">
  <defs><style>.label{fill:#263847;font-size:13px}.small{fill:#617583;font-size:11px}.tiny{fill:#728694;font-size:9px}.white{fill:#fff;font-size:13px;font-weight:700}.panel{fill:#fff;stroke:#c8d3dc}.a{fill:#1d9a75}.b{fill:#df7b2d}.axis{stroke:#91a3b1}.ok{fill:#17864b;font-size:11px;font-weight:700}</style><linearGradient id="mspec" x1="0" y1="0" x2="0" y2="1"><stop stop-color="#09131c"/><stop offset=".55" stop-color="#15313c"/><stop offset="1" stop-color="#081018"/></linearGradient></defs>
  <rect width="390" height="844" fill="#eef3f6"/><rect width="390" height="48" fill="#0c4968"/><text x="16" y="30" class="white" font-size="15">Moderator Workbench</text><text x="354" y="30" fill="#fff" font-size="18">⋮</text>
  <rect x="12" y="60" width="366" height="72" rx="6" class="panel"/><text x="24" y="82" class="label" font-weight="700">SRKW · Orcasound Lab</text><text x="24" y="102" class="small">08:01–08:07 · NEEDS REVIEW</text><text x="24" y="120" class="tiny">Not claimed · autosaved just now</text><rect x="270" y="76" width="92" height="44" rx="5" fill="#087c8c"/><text x="282" y="103" class="white">Claim bout</text>
  <rect x="12" y="144" width="366" height="44" rx="5" fill="#dfe8ed"/><rect x="14" y="146" width="120" height="40" rx="4" fill="#fff"/><text x="47" y="172" class="label" font-weight="700">Evidence</text><text x="164" y="172" class="small">Boundaries</text><text x="291" y="172" class="small">Details</text>
  <text x="16" y="214" class="label" font-weight="700">Reporter visibility</text><rect x="260" y="196" width="114" height="34" rx="17" fill="#dff2ee" stroke="#6dbda7"/><circle cx="356" cy="213" r="13" fill="#1d9a75"/><text x="272" y="217" class="small">Overlays ON</text>
  <rect x="16" y="240" width="174" height="44" rx="5" fill="#e8f7f2"/><rect x="28" y="253" width="18" height="18" rx="3" class="a"/><path d="M32 262l4 4 7-10" fill="none" stroke="#fff" stroke-width="2"/><text x="54" y="267" class="label">Reporter A · human</text><rect x="200" y="240" width="174" height="44" rx="5" fill="#fff1e6"/><rect x="212" y="253" width="18" height="18" rx="3" class="b"/><path d="M216 262l4 4 7-10" fill="none" stroke="#fff" stroke-width="2"/><text x="238" y="267" class="label">Reporter B · model</text>
  <rect x="16" y="296" width="358" height="218" rx="5" class="panel"/><text x="26" y="315" class="small">Pinch to zoom · drag to pan</text><rect x="24" y="326" width="342" height="116" rx="3" fill="url(#mspec)"/>
  <g opacity=".82"><rect x="76" y="360" width="9" height="58" rx="2" class="a"/><rect x="184" y="344" width="11" height="76" rx="2" class="a"/><rect x="294" y="366" width="9" height="48" rx="2" class="a"/><rect x="107" y="386" width="9" height="34" rx="2" class="b"/><rect x="185" y="383" width="9" height="37" rx="2" class="b"/><rect x="235" y="390" width="9" height="30" rx="2" class="b"/><rect x="325" y="374" width="9" height="46" rx="2" class="b"/></g><line x1="54" y1="326" x2="54" y2="442" stroke="#61a9ff" stroke-width="2"/><line x1="318" y1="326" x2="318" y2="442" stroke="#61a9ff" stroke-width="2"/>
  <line x1="24" y1="462" x2="366" y2="462" class="axis"/><circle cx="80" cy="462" r="6" class="a"/><circle cx="190" cy="462" r="6" class="a"/><circle cx="298" cy="462" r="6" class="a"/><text x="26" y="456" class="tiny">A</text><line x1="24" y1="489" x2="366" y2="489" class="axis"/><rect x="107" y="483" width="10" height="12" class="b"/><rect x="185" y="483" width="10" height="12" class="b"/><rect x="235" y="483" width="10" height="12" class="b"/><rect x="325" y="483" width="10" height="12" class="b"/><text x="26" y="483" class="tiny">B</text><text x="24" y="507" class="tiny">07:45</text><text x="176" y="507" class="tiny">08:05</text><text x="338" y="507" class="tiny">08:25</text>
  <rect x="12" y="526" width="366" height="106" rx="6" class="panel"/><text x="24" y="549" class="label" font-weight="700">Boundary check</text><text x="24" y="575" class="small">Before start · 15 min no detections</text><text x="318" y="575" class="ok">✓</text><text x="24" y="601" class="small">After end · detection at +12 min</text><text x="304" y="601" fill="#b05b22" font-size="11" font-weight="700">EXTEND</text><rect x="24" y="607" width="156" height="18" rx="4" fill="#f2f6f8" stroke="#c8d3dc"/><text x="51" y="620" class="tiny">Open boundary controls</text>
  <rect x="12" y="644" width="366" height="102" rx="6" class="panel"/><circle cx="46" cy="677" r="22" fill="#087c8c"/><path d="M40 666l17 11-17 11z" fill="#fff"/><text x="80" y="674" class="label">08:03:14</text><text x="80" y="694" class="small">Audio synchronized · ±15 sec</text><rect x="24" y="711" width="154" height="28" rx="4" fill="#f2f6f8"/><text x="47" y="729" class="small">← previous detection</text><rect x="210" y="711" width="154" height="28" rx="4" fill="#f2f6f8"/><text x="240" y="729" class="small">next detection →</text>
  <rect x="0" y="766" width="390" height="78" fill="#fff" stroke="#c8d3dc"/><rect x="12" y="780" width="82" height="50" rx="5" fill="#e8f1f4"/><text x="37" y="810" class="label" font-weight="700">Save</text><rect x="102" y="780" width="112" height="50" rx="5" fill="#17864b"/><text x="128" y="810" class="white">Publish</text><rect x="222" y="780" width="156" height="50" rx="5" fill="#b45539"/><text x="247" y="810" class="white">Confirm &amp; notify</text>
</svg>
